# xmcd
#
# Track frame offsets:
#	150
#	13320
#	29310
#	43245
#	57090
#	70230
#	83980
#	98440
#	112425
#	124955
#	138460
#	153505
#	166405
#	182175
#	195975
#	205440
#	219680
#	233460
#	250620
#	262515
#
# Disc length: 3750 seconds
#
# Revision: 4
# Processed by: cddbd v1.5.2PL0 Copyright (c) Steve Scherf et al.
# Submitted via: audiograbber 1.83.01
#
DISCID=1b0ea414
DTITLE=Hanna Ekola - Villihevosia - 20 Hannan parasta 1995
DYEAR=1995
DGENRE=Suomi
TTITLE0=Luoja tiet‰‰ 1995
TTITLE1=Siivet 1995
TTITLE2=Kˆyh‰ ja vaatimaton 1995
TTITLE3=Luonnonlapset 1994
TTITLE4=Villihevosia 1990
TTITLE5=Kyll‰ hallakin tulla saa 1992
TTITLE6=Pisara vain 1993
TTITLE7=J‰‰ hiljaisuus 1990
TTITLE8=He 1990
TTITLE9=Hallako sun vei 1990
TTITLE10=L‰mmint‰ pakkasp‰iv‰‰ Herra H. 1994
TTITLE11=Kuljethan 1995
TTITLE12=Pieni‰ ilot 1993
TTITLE13=Ikionnellisten saari 1990
TTITLE14=Kuusi ja kataja 1990
TTITLE15=Lumienkeli 1993
TTITLE16=Tanssi, tanssi 1992
TTITLE17=Oletko viel‰kin rakastunut 1992
TTITLE18=Valkosiipijoutsen 1992
TTITLE19=Tuhkan lailla 1994
EXTD=
EXTT0=
EXTT1=
EXTT2=
EXTT3=
EXTT4=
EXTT5=
EXTT6=
EXTT7=
EXTT8=
EXTT9=
EXTT10=
EXTT11=
EXTT12=
EXTT13=
EXTT14=
EXTT15=
EXTT16=
EXTT17=
EXTT18=
EXTT19=
PLAYORDER=
